# xmcd
#
# Track frame offsets: 
#        150
#        16380
#        33802
#        51367
#
# Disc length: 946 seconds
#
# Revision: 8
# Processed by: cddbd v1.5.2PL0 Copyright (c) Steve Scherf et al.
# Submitted via: ExactAudioCopy v1.0b1
#
DISCID=2803b004
DTITLE=Lifehouse - Hanging By A Moment [CDS]
DYEAR=2001
DGENRE=Rock
TTITLE0=Hanging By A Moment
TTITLE1=Fairy Tales [Non LP Version]
TTITLE2=What's Wrong With That [Non LP Version]
TTITLE3=Fool [Non LP Version]
EXTD=YEAR: 2000 ID3G: 17
EXTT0=
EXTT1=
EXTT2=
EXTT3=
PLAYORDER=
